<?xml version="1.0" standalone="no"?>
<!DOCTYPE svg PUBLIC "-//W3C//DTD SVG 20010904//EN"
 "http://www.w3.org/TR/2001/REC-SVG-20010904/DTD/svg10.dtd">
<svg version="1.0" xmlns="http://www.w3.org/2000/svg"
 width="219.000000pt" height="248.000000pt" viewBox="0 0 219.000000 248.000000"
 preserveAspectRatio="xMidYMid meet">
<metadata>
Created by potrace 1.15, written by Peter Selinger 2001-2017
</metadata>
<g transform="translate(0.000000,248.000000) scale(0.100000,-0.100000)"
fill="#000000" stroke="none">
<path d="M1001 2457 c-19 -12 -242 -144 -495 -292 -443 -260 -462 -273 -483
-315 l-23 -44 0 -576 c0 -548 1 -576 19 -606 11 -18 34 -43 53 -57 29 -22 848
-501 938 -549 44 -23 125 -24 167 0 17 9 239 136 493 282 341 196 469 274 489
299 l26 34 2 586 c1 353 -2 598 -8 617 -5 17 -22 42 -37 56 -23 21 -875 524
-969 572 -48 24 -130 21 -172 -7z m229 -527 c67 -19 69 -25 25 -70 -37 -38
-40 -45 -39 -98 0 -72 25 -116 141 -248 135 -155 151 -177 187 -255 46 -102
60 -167 53 -258 -14 -201 -143 -359 -347 -424 -114 -36 -182 -36 -299 3 -193
63 -301 174 -331 340 -20 113 3 208 80 326 27 41 54 91 61 111 11 34 10 38
-15 59 -24 21 -111 54 -143 54 -23 0 -14 16 31 58 51 47 76 56 141 50 45 -3
45 -3 50 32 24 154 111 272 233 316 44 16 124 18 172 4z"/>
<path d="M1078 1884 c-64 -20 -149 -99 -178 -166 -15 -34 -25 -81 -28 -131 -4
-75 -6 -78 -26 -72 -86 27 -106 29 -144 10 l-37 -18 45 -19 c125 -53 129 -121
20 -277 -50 -72 -70 -134 -70 -221 0 -104 39 -199 109 -264 38 -36 39 -32 4
29 -38 69 -43 169 -12 250 18 49 38 75 109 145 48 47 99 104 114 128 35 56 56
141 56 226 l0 70 36 -35 c53 -51 104 -134 132 -213 22 -64 24 -80 18 -176 -7
-116 3 -153 42 -158 33 -5 89 54 97 104 11 63 12 66 34 54 11 -5 30 -36 42
-67 31 -77 34 -258 6 -312 l-17 -35 25 24 c60 56 114 226 100 314 -21 133 -70
226 -199 371 -142 160 -179 221 -184 302 -3 49 0 71 16 102 l21 39 -31 6 c-39
8 -44 7 -100 -10z"/>
<path d="M1077 1406 c-9 -87 -57 -169 -160 -271 -107 -107 -132 -152 -131
-245 1 -107 66 -206 174 -261 38 -20 60 -23 145 -23 118 0 153 12 223 78 69
65 95 121 96 215 1 42 -3 93 -7 113 l-8 37 -48 -49 c-42 -44 -52 -50 -88 -50
-34 0 -46 6 -68 32 -27 32 -28 34 -22 141 5 121 -5 176 -49 263 -41 81 -50 84
-57 20z"/>
</g>
</svg>
